<?xml version="1.0" standalone="no"?>
<!DOCTYPE svg PUBLIC "-//W3C//DTD SVG 20010904//EN"
 "http://www.w3.org/TR/2001/REC-SVG-20010904/DTD/svg10.dtd">
<svg version="1.0" xmlns="http://www.w3.org/2000/svg"
 width="1024.000000pt" height="1024.000000pt" viewBox="0 0 1024.000000 1024.000000"
 preserveAspectRatio="xMidYMid meet">
<metadata>
Created by potrace 1.14, written by Peter Selinger 2001-2017
</metadata>
<g transform="translate(0.000000,1024.000000) scale(0.100000,-0.100000)"
fill="#000000" stroke="none">
<path d="M0 5120 l0 -5120 5120 0 5120 0 0 5120 0 5120 -5120 0 -5120 0 0
-5120z m4770 3250 c295 -19 605 -63 878 -127 l112 -27 0 -758 c0 -719 -1 -759
-17 -754 -226 69 -622 142 -913 167 -187 16 -511 7 -660 -20 -288 -50 -489
-153 -562 -288 -37 -66 -53 -164 -39 -237 41 -221 240 -327 736 -390 156 -20
407 -36 562 -36 l123 0 0 335 0 335 765 0 765 0 0 -335 0 -335 139 0 139 0 -4
393 c-3 215 -9 705 -14 1087 -6 382 -10 743 -10 803 l0 107 760 0 760 0 0
-272 c0 -451 -29 -3454 -36 -3725 l-6 -253 -217 -1 c-189 0 -212 -2 -181 -13
150 -56 297 -163 404 -298 261 -327 258 -771 -8 -1104 -128 -160 -291 -266
-493 -320 -102 -28 -348 -26 -458 4 -334 92 -585 349 -661 679 -22 94 -24 289
-5 378 64 293 294 555 581 661 31 11 7 13 -182 13 l-218 1 0 240 0 240 -145 0
-145 0 0 -409 c0 -442 -8 -545 -54 -736 -53 -218 -147 -425 -274 -605 -86
-123 -318 -355 -439 -440 -361 -253 -768 -396 -1283 -452 -149 -16 -594 -16
-735 0 -574 66 -1019 237 -1363 526 -254 214 -446 510 -523 808 -87 338 -75
713 33 1043 32 99 111 271 161 350 114 183 314 395 480 510 47 33 86 63 86 66
1 3 -37 37 -83 77 -254 216 -421 488 -505 823 -44 175 -54 281 -48 521 6 237
21 331 83 518 72 216 184 390 369 575 230 230 486 380 850 500 445 147 963
208 1495 175z"/>
<path d="M4565 4509 c-297 -16 -608 -60 -773 -110 -195 -60 -325 -188 -361
-357 -16 -75 -14 -217 4 -286 48 -184 192 -336 384 -406 116 -43 207 -53 393
-47 192 6 275 25 417 93 165 80 285 222 337 400 14 49 18 115 21 392 l5 332
-139 -1 c-76 -1 -205 -6 -288 -10z"/>
</g>
</svg>
