<?xml version="1.0" standalone="no"?>
<!DOCTYPE svg PUBLIC "-//W3C//DTD SVG 20010904//EN"
 "http://www.w3.org/TR/2001/REC-SVG-20010904/DTD/svg10.dtd">
<svg version="1.0" xmlns="http://www.w3.org/2000/svg"
 width="2048.000000pt" height="2048.000000pt" viewBox="0 0 2048.000000 2048.000000"
 preserveAspectRatio="xMidYMid meet">
<metadata>
Created by potrace 1.14, written by Peter Selinger 2001-2017
</metadata>
<g transform="translate(0.000000,2048.000000) scale(0.100000,-0.100000)"
fill="#000000" stroke="none">
<path d="M0 10240 l0 -10240 10240 0 10240 0 0 10240 0 10240 -10240 0 -10240
0 0 -10240z m9355 6510 c676 -28 1342 -121 1988 -276 l187 -46 0 -1514 c0
-833 -3 -1514 -8 -1514 -4 0 -66 16 -137 36 -526 144 -1125 253 -1690 306
-222 21 -940 17 -1130 -5 -635 -76 -1102 -264 -1292 -520 -100 -135 -143 -271
-143 -451 0 -185 50 -320 166 -445 166 -179 404 -285 844 -376 423 -86 895
-131 1493 -142 l347 -6 0 666 0 667 1535 0 1535 0 0 -665 0 -665 272 0 271 0
-7 918 c-4 504 -11 1203 -16 1552 -17 1172 -29 1884 -35 2093 l-6 207 1530 0
1531 0 -5 -352 c-4 -194 -17 -1611 -30 -3148 -27 -3025 -41 -4357 -51 -4737
l-6 -243 -447 -2 -446 -3 55 -19 c526 -181 980 -639 1150 -1162 140 -430 108
-889 -90 -1300 -96 -198 -284 -448 -441 -584 -268 -233 -532 -364 -869 -431
-100 -20 -145 -24 -340 -24 -264 0 -374 17 -593 89 -625 206 -1087 722 -1218
1358 -55 271 -36 626 47 890 161 509 602 961 1124 1152 l95 35 -452 0 -453 1
0 273 c0 149 -3 363 -7 475 l-6 202 -278 0 -277 0 -5 -797 c-3 -488 -9 -839
-16 -903 -57 -533 -167 -928 -373 -1340 -139 -279 -293 -507 -503 -748 -915
-1045 -2394 -1580 -4206 -1521 -1738 57 -3099 687 -3831 1774 -426 632 -600
1402 -512 2263 93 909 521 1708 1232 2301 87 72 166 132 371 279 l23 17 -103
84 c-144 117 -406 383 -513 521 -381 492 -598 1050 -668 1720 -16 161 -16 619
0 780 67 639 260 1146 612 1602 121 157 418 456 582 586 472 374 1018 636
1732 832 753 207 1608 296 2481 260z"/>
<path d="M9475 9033 c-998 -33 -1771 -150 -2107 -319 -325 -164 -493 -411
-529 -783 -29 -290 48 -581 211 -801 235 -315 570 -485 1050 -531 152 -14 430
-7 589 16 738 105 1208 542 1280 1188 7 57 11 326 11 667 l0 570 -212 -2
c-117 -1 -249 -3 -293 -5z"/>
</g>
</svg>
